<svg width="800" height="800" viewBox="0 0 800 800" fill="none" xmlns="http://www.w3.org/2000/svg">
<g clip-path="url(#clip0_137_65)">
<path d="M581.472 13.2876C517.612 -9.31563 417.893 8.6001 390.946 47.5394C387.135 53.0535 387.827 60.502 392.602 65.2082C401.255 73.7458 478.465 148.595 524.172 148.595C566.767 148.595 649.479 127.835 652.982 126.952C657.877 125.713 661.702 121.909 662.96 117.027C663.135 116.344 679.531 48.0269 581.472 13.2876Z" fill="#FAF0D4"/>
<path d="M762.567 454.586C759.497 450.411 754.359 448.284 749.236 449.132C744.637 449.887 636.458 468.376 620.972 545.797C606.766 616.807 621.001 681.312 621.612 684.02C622.869 689.568 627.408 693.782 633.044 694.617C641.03 695.803 648.943 696.381 656.732 696.381C688.109 696.381 717.4 686.887 740.959 668.748C770.862 645.732 789.291 610.247 794.247 566.117C800.831 507.497 764.128 456.714 762.567 454.586Z" fill="#FAF0D4"/>
<path d="M317.214 284.785C303.566 175.61 232.186 98.885 223.662 90.063C210.356 72.9208 176.246 71.1973 150.713 75.0333C125.955 78.7427 42.7034 98.4725 10.9094 196.623C-22.4611 299.624 29.8095 392.705 46.6237 418.79C63.6113 445.145 89.1239 474.125 109.769 476.454C110.712 476.55 111.737 476.603 112.86 476.603C141.046 476.603 224.547 443.259 273.881 393.324C307.397 359.404 321.975 322.882 317.214 284.785Z" fill="#FFF5DC"/>
<path d="M357.513 648.709C353.19 630.366 313.188 468.564 239.706 439.167L232.278 436.19C160.623 407.479 86.5474 377.744 55.555 429.362C32.1361 468.401 29.7267 521.259 48.7675 578.222C74.5629 655.36 135.399 728.431 193.428 751.942C208.423 758.015 223.081 761.059 237.323 761.059C252.642 761.059 267.475 757.545 281.689 750.501C328.688 727.231 352.691 672.745 357.393 655.495C357.997 653.287 358.04 650.944 357.513 648.709Z" fill="#FFF5DC"/>
<path d="M682.184 534.861C667.109 490.662 632.283 454.962 609.221 449.348L608.447 449.16C592.052 445.173 589.736 445.187 572.955 449.51C561.489 452.446 540.136 457.928 494.214 465.967C415.467 479.77 314.203 570.052 289.77 648.238C278.7 683.656 284.074 713.471 305.305 734.439C365.016 793.409 522.644 796.642 556.392 796.642C559.733 796.642 561.86 796.614 562.56 796.603C568 796.508 572.881 793.195 575.017 788.186C575.205 787.741 594.886 742.345 660.377 660.494C697.838 613.655 692.909 566.319 682.184 534.861Z" fill="#FFFAEB"/>
<path d="M787.689 276.367C759.328 259.183 734.145 214.973 717.481 185.715C712.565 177.076 708.31 169.635 704.815 164.263C671.371 112.807 636.397 84.8301 600.864 81.1004C568.019 77.6457 545.994 95.8537 538.022 103.832C536.461 105.393 535.295 107.307 534.628 109.407C494.7 235.151 509.539 250 513.909 254.309C517.02 258.605 524.878 281.486 531.814 301.658C553.064 363.497 588.63 466.989 638.53 516.883L669.173 547.533C671.866 550.227 675.393 551.573 678.923 551.573C682.451 551.573 685.979 550.227 688.673 547.533C689.138 547.063 689.562 546.577 689.945 546.064C752.956 519.589 789.564 406.671 798.042 339.082C803.875 292.594 795.573 281.148 787.689 276.367Z" fill="#FFF5DC"/>
<path d="M560.477 123.884C541.502 89.4693 502.739 66.1238 448.367 56.3613C398.23 47.3643 277.978 8.31879 276.773 7.92817C273.198 6.76254 269.313 7.12035 266 8.87817C262.687 10.6485 260.242 13.7001 259.225 17.3157C259.158 17.5595 251.839 42.2627 232.878 59.816C131.157 154.029 151.149 230.286 159.687 262.847L160.873 267.425C162.421 273.62 167.976 277.877 174.246 277.877C174.664 277.877 175.081 277.863 175.504 277.823L549.024 243.712C554.161 243.242 558.613 239.94 560.552 235.161C577.547 193.278 577.519 154.796 560.477 123.884Z" fill="#FFFAEB"/>
<path d="M505.115 595.18C504.947 593.711 504.544 592.297 503.929 590.966C502.94 588.839 478.907 538.364 407.157 495.312C330.768 449.456 223.512 535.644 218.987 539.347C215.109 542.511 213.251 547.52 214.126 552.45C228.615 633.977 292.711 648.104 349.258 660.576C356.227 662.112 363.157 663.632 369.937 665.276C395.563 671.496 411.327 679.86 416.781 690.121C417.918 692.262 421.373 698.779 429.567 699.185C429.748 699.199 429.931 699.199 430.112 699.199C434.818 699.199 439.97 696.223 442.562 692.332C447.868 684.374 456.373 676.334 465.381 667.809C485.731 648.56 508.792 626.758 505.115 595.18Z" fill="#F8EBC8"/>
<path d="M246.555 226.526C244.07 224.573 240.784 223.598 237.834 223.576C234.939 223.615 166.623 225.414 141.904 298.277C114.088 380.263 101.747 498.192 101.235 503.159C100.702 508.303 103.101 513.314 107.437 516.141C108.232 516.653 127.482 529.002 179.215 548.408C196.351 554.833 215.111 557.66 233.661 557.66C283.245 557.66 331.239 537.445 342.216 511.819C342.527 511.105 342.768 510.378 342.944 509.65C343.725 508.087 344.224 506.35 344.358 504.492C358.005 316.444 251.114 230.109 246.555 226.526Z" fill="#FAF0D4"/>
<path d="M367.729 184.114C366.308 181.07 363.822 178.66 360.746 177.32C279.394 141.909 223.298 234.514 199.34 274.052C196.486 278.764 194.062 282.766 192.095 285.714C187.071 293.228 189.523 300.567 199.393 307.53C210.153 315.125 242.89 338.221 259.308 367.632C280.208 405.084 301.505 425.162 324.419 429.04C326.743 429.431 329.335 429.687 332.149 429.687C342.06 429.687 354.699 426.509 367.796 414.859C369.21 413.606 370.354 412.071 371.149 410.362C373.237 405.863 421.554 298.924 367.729 184.114Z" fill="#F8EBC8"/>
<path d="M575.513 255.064C574.314 251.119 561.966 215.425 496.901 174.648C424.335 129.171 371.647 143.331 369.432 143.957C364.954 145.229 361.399 148.718 360.011 153.162C359.944 153.37 352.996 175.199 317.019 253.302C308.542 271.697 310.972 291.535 323.868 309.147C339.925 331.097 369.722 345.979 395.968 345.979C398.688 345.979 401.376 345.816 403.993 345.494C405.374 345.318 406.72 344.943 407.991 344.363L568.024 271.616C574.316 268.758 577.519 261.675 575.513 255.064Z" fill="#FAF0D4"/>
<path d="M588.05 250.997C584.321 245.825 577.464 243.88 571.561 246.337C571.231 246.472 538.111 259.831 475.025 259.831C443.174 259.831 419.34 268.422 404.19 285.352C386.905 304.663 387.868 326.964 388.582 333.333C388.818 335.46 389.546 337.508 390.709 339.313C392.338 341.818 432.456 401.394 601.355 461.2C602.857 461.739 604.411 461.995 605.961 461.995C609.139 461.995 612.277 460.89 614.788 458.803C616.182 457.645 648.852 429.943 648.852 390.001C648.854 335.863 590.528 254.431 588.05 250.997Z" fill="#F8EBC8"/>
<path d="M601.685 411.493C589.005 390.357 570.008 377.513 550.439 376.422C556.436 384.88 560.38 393.779 561.466 402.929C569.35 469.332 521.934 515.35 487.311 548.963C472.698 563.138 458.912 576.586 454.273 586.821C460.667 589.964 467.137 594.453 474.342 599.474C493.081 612.522 516.411 628.763 554.308 631.215C554.611 631.229 554.908 631.243 555.21 631.243C562.105 631.243 568.003 626.111 568.878 619.177C568.946 618.638 575.996 564.597 603.582 512.884C624.033 474.543 616.007 435.37 601.685 411.493Z" fill="#F5E1B9"/>
<path d="M561.466 402.927C558.12 374.768 530.042 348.496 486.348 332.646C457.092 322.057 417.759 315.924 391.554 327.869C386.865 375.34 372.276 407.926 371.146 410.362C370.351 412.071 369.207 413.607 367.793 414.859C365.269 417.103 362.774 418.946 360.302 420.599C360.302 420.599 331.157 500.898 330.599 503.497C327.441 518.269 330.489 563.625 384.19 577.914C404.915 583.422 420.349 589.764 430.045 596.755C431.56 597.846 434.979 600.311 439.628 600.311C441.062 600.311 442.61 600.082 444.259 599.504C448.529 597.982 451.84 594.386 453.018 590.022C455.859 579.493 471.139 564.65 487.312 548.963C521.936 515.348 569.353 469.333 561.466 402.927Z" fill="#EBD7B4"/>
<path d="M381.371 381.54C376.48 398.482 371.771 409.024 371.151 410.362C370.355 412.071 369.212 413.607 367.797 414.859C354.701 426.507 342.061 429.687 332.15 429.687C329.336 429.687 326.743 429.432 324.421 429.04C301.506 425.162 280.209 405.084 259.309 367.632C254.698 359.372 248.758 351.688 242.422 344.627C233.006 365.311 224.795 404.26 236.692 440.621C245.997 469.035 265.452 490.462 294.511 504.304C319.505 516.195 345.846 521.231 370.451 521.231C402.435 521.231 431.474 512.719 450.773 499.737C466.711 489.003 474.245 475.601 474.245 461.935C474.243 451.973 468.15 398.537 381.371 381.54Z" fill="#F5E1B9"/>
<path d="M389.055 347.044L381.371 381.54C440.434 393.107 462.086 421.537 469.914 441.671C496.85 410.805 493.633 322.167 389.055 347.044Z" fill="#DCC39B"/>
</g>
<defs>
<clipPath id="clip0_137_65">
<rect width="800" height="800" fill="white"/>
</clipPath>
</defs>
</svg>
